<?xml version="1.0" encoding="utf-8"?>
<!-- Generator: Adobe Illustrator 23.0.1, SVG Export Plug-In . SVG Version: 6.00 Build 0)  -->
<svg version="1.1" id="Layer_1" xmlns="http://www.w3.org/2000/svg" xmlns:xlink="http://www.w3.org/1999/xlink" x="0px" y="0px"
	 viewBox="0 0 537.4 532.5" style="enable-background:new 0 0 537.4 532.5;" xml:space="preserve">
<style type="text/css">
	.st0{fill:#FFFFFF;}
</style>
<title>Circle II</title>
<g>
	<path class="st0" d="M62.7,202.3c-4.3,13.4-13.7,19.2-25.4,15.5c-11.6-3.7-16.1-14-11.8-27.4l8.9-27.8l37.1,11.9L62.7,202.3z
		 M65.1,176.9l-26.8-8.6l-8,25.2c-3.2,10,0,17.4,8.4,20.1c8.4,2.7,15.2-1.5,18.4-11.5L65.1,176.9z"/>
	<path class="st0" d="M55.7,227.9l-2.9,43.9l-5.4-0.4l2.6-39.5l-10.8-0.7l-2.5,37.4l-5.4-0.4l2.5-37.4L21.9,230l-2.6,39.9l-5.4-0.4
		l2.9-44.3L55.7,227.9z"/>
	<path class="st0" d="M18.1,308.2c-2.6-15.1,0.6-24.8,3.4-29.1l3.6,2c-1.7,3.8-3.9,12.5-1.5,26.8c1.8,10.4,4.8,18.4,9.3,17.6
		c4.3-0.7,3.8-7.9,2.6-22.1c-1.4-17.2-1-25.1,6.6-26.4c7.8-1.3,12.9,8.1,15.1,21.3c1.9,11.4,0.8,20.6-3,27.1l-3.5-2.1
		c2.5-6.4,2.8-14.5,1.1-24.3c-1.6-9.4-4.3-18.4-8.7-17.6c-3.7,0.6-3.8,6-2.2,21.2c1.7,16,1.3,25.9-7.4,27.4
		C26.9,331.1,20.9,324.4,18.1,308.2z"/>
	<path class="st0" d="M64.2,329.7l1.4,4.1l-37,12.3l-1.4-4.1L64.2,329.7z"/>
	<path class="st0" d="M79,363.3c4.3,8.2,5.5,17.8,3,25.6l-4-0.9c1.4-7.8,0.1-14.7-3.8-22.1c-6.2-11.9-15.4-17.4-23.5-13.2
		c-8.2,4.3-9.5,13.6-3,25.9c6.2,11.7,13.6,15.5,19.9,14.6l0.2-0.1l-8.2-15.7l4.8-2.5l10.2,19.5l-18.8,9.8l-2-3.9l7.3-3.8
		c-6.8-1.4-13.5-6.6-18.2-15.5c-7.7-14.7-5.4-26.5,5.8-32.3C59.8,342.9,71.5,349.1,79,363.3z"/>
	<path class="st0" d="M67.4,419.7l-3-3.2l28.8-26.3l3,3.2l4.1,52.8l24.1-22.1l3,3.2l-28.8,26.3l-3-3.2l-4.2-52.8L67.4,419.7z"/>
	<path class="st0" d="M133.8,430.9l3.4,2.7L113,464.2l-3.4-2.7L133.8,430.9z"/>
	<path class="st0" d="M126.9,475.3l-3.8-2.1l19-34l3.8,2.1l20.5,48.9l15.9-28.5l3.8,2.1l-19,34l-3.8-2.1l-20.6-48.8L126.9,475.3z"/>
	<path class="st0" d="M216.3,471.4c9,2.3,16.9,7.8,21,14.8l-3.3,2.4c-4.9-6.2-10.9-9.9-19-12c-13-3.3-23.2-0.2-25.5,8.7
		c-2.3,8.9,3.8,16.1,17.3,19.6c12.9,3.3,20.6,0.2,24.1-5l0.1-0.2l-17.1-4.3l1.3-5.2l21.4,5.4l-5.2,20.6l-4.2-1.1l2-8
		c-5.6,4.1-13.9,5.6-23.7,3.2c-16.1-4.1-23.3-13.6-20.2-25.9S200.7,467.5,216.3,471.4z"/>
	<path class="st0" d="M263.2,483.1l-0.2-1l4.5-0.7l22,30.6l10.4-35.6l4.9-0.8l20.8,30.7l11.6-35.8l4.5-0.7l0.2,1l-13.1,40.5L324,512
		l-20.8-30.7l-10.4,35.6l-4.7,0.7L263.2,483.1z"/>
	<path class="st0" d="M344.2,464.9l4.1-1.6l14.1,36.4l-4.1,1.6L344.2,464.9z"/>
	<path class="st0" d="M375.2,456.6l-19.3,10.9l-2.7-4.7l42.4-24l2.7,4.7L379,454.4l16.6,29.2l-3.8,2.2L375.2,456.6z"/>
	<path class="st0" d="M462.6,429.5l-3.2,3l-12.3-12.9l-31,29.6l12.3,12.9l-3.2,3l-26.9-28.2l3.2-3l10.9,11.4l31-29.6l-10.9-11.4
		l3.2-3L462.6,429.5z"/>
	<path class="st0" d="M499.3,369.9L460.4,380l28.5,12.9l-1.8,4l-35.5-16.1l1.8-4l41.8-10.8l-19.4-38.5l1.8-4l35.5,16.1l-1.8,4
		l-28.5-12.9l18.1,35.9L499.3,369.9z"/>
	<path class="st0" d="M477.6,317.5l0.7-4.3l33.2,5.4l5.9-36.5l5.3,0.9l-6.6,40.9L477.6,317.5z"/>
	<path class="st0" d="M476.9,172.1l-10.7-20.2c-3.5-6.7-2.6-11.2,2.3-13.8s9.1-0.8,12.7,5.9l9.3,17.6l8.9-4.7l1.4,2.7L476.9,172.1z
		 M469.2,149.5l9.6,18.2l8.3-4.4l-9.6-18.2c-2.5-4.7-5-5.8-7.6-4.4C467.3,142.1,466.7,144.8,469.2,149.5z"/>
	<path class="st0" d="M461.9,98l2,2.8l-3.2,8.8l12.2,16.5l9.3-0.5l2,2.8l-0.6,0.4l-31.5,1.6l-1.7-2.3l10.8-29.7L461.9,98z
		 M468.5,126.3l-9.2-12.5l-4.8,13.2L468.5,126.3z"/>
	<path class="st0" d="M438,111.8l-17.7-17c-4.7-4.5-5.8-9.2-2-13.2c3.5-3.6,7.8-3.1,12.1,0.5l1.5-12.6l0.5-0.5l2.6,2.5l-1.6,13.5
		L447,98l7.5-7.8l2.2,2.1L438,111.8z M422.6,91.8l15.8,15.2l6-6.3l-15.8-15.2c-3.3-3.2-6.1-4-8.1-1.8
		C418.4,85.9,419.3,88.6,422.6,91.8z"/>
	<path class="st0" d="M410.4,52.5c8.8,5.9,12.1,12.2,12.9,15.6l-2.7,0.8c-1.1-2.7-4.4-7.9-12.7-13.6c-6-4.1-11.5-6.4-13.3-3.8
		c-1.7,2.5,2.1,5.7,9.8,11.9c9.3,7.5,13,11.6,10.1,16c-3.1,4.5-10.2,2.6-17.9-2.6c-6.6-4.5-10.7-9.5-12.1-14.5l2.7-0.8
		c2,4.3,6,8.3,11.6,12.2c5.5,3.7,11.2,6.7,13,4.1c1.5-2.1-1.2-4.8-9.6-11.2c-8.8-6.8-13.6-11.7-10.1-16.8
		C394.7,45.9,400.9,46.1,410.4,52.5z"/>
	<path class="st0" d="M361.2,57c-10.2-4.6-15.5-12.6-11.9-20.6c3.6-8,13.1-9.4,23.3-4.8c10.1,4.5,15.4,12.6,11.8,20.6
		C380.8,60.1,371.3,61.5,361.2,57z M371.1,35c-8.6-3.9-16.4-3.2-19,2.6c-2.6,5.8,2.1,12.1,10.7,16c8.5,3.8,16.3,3.1,18.9-2.7
		C384.2,45.1,379.6,38.8,371.1,35z"/>
	<path class="st0" d="M343.2,20.5l2.9,0.7l-6.4,26.2l-2.9-0.7L314,17.9l-5.4,22l-2.9-0.7l6.4-26.2l2.9,0.7l22.7,28.8L343.2,20.5z"/>
	<path class="st0" d="M284.9,9.9c10.6,0.7,16.6,4.4,19,6.9L302,19c-2.3-1.8-7.8-4.6-17.8-5.3c-7.3-0.5-13.1,0.2-13.4,3.4
		c-0.2,3,4.7,3.9,14.4,5.3c11.8,1.8,17.1,3.4,16.7,8.7c-0.4,5.5-7.5,7.4-16.8,6.7c-8-0.5-14-2.8-17.8-6.4l2-2
		c3.9,2.7,9.4,4.2,16.2,4.7c6.6,0.4,13.1,0.1,13.3-3c0.2-2.6-3.4-3.5-13.9-4.9c-11-1.4-17.6-3.3-17.2-9.4
		C268.1,12.1,273.6,9.2,284.9,9.9z"/>
	<path class="st0" d="M248.3,30.5c-1.9,5.4-6.5,8.3-12.2,9.1c-7.2,1-11.9-2.1-12.6-7c-0.7-5.1,2.8-8.2,6.9-11l9.9-6.8l-19.6,3.1
		l-0.5-3.7l25.3-3.5l0.5,3.6l-13.7,10.1c-3.2,2.3-6.3,4.7-5.8,7.8s4.5,4.4,9.1,3.7c3.7-0.5,8.1-2.2,10-6.3L248.3,30.5z"/>
	<path class="st0" d="M205.2,46.4c-9.2,2.7-18.2-0.5-20.5-8.6s3.5-15.6,12.7-18.3c9.1-2.7,18.1,0.6,20.4,8.6
		C220.2,36.2,214.4,43.7,205.2,46.4z M198.5,23.1c-7.6,2.2-12.6,7.9-10.9,13.8c1.7,5.9,8.9,8,16.6,5.8c7.5-2.2,12.5-7.9,10.8-13.8
		C213.2,23.1,206,20.9,198.5,23.1z"/>
	<path class="st0" d="M182.7,43.3l-7.6,13.7l-2,0.9L162.4,33l2.8-1.2l8.8,20.9l6.6-12.5l0.7-0.3L182.7,43.3z"/>
	<path class="st0" d="M138.1,62.1c-4.9-8.5-2.3-15.5,5.4-19.9c5.1-2.9,10.7-3.7,14.9-2.3l-0.7,2.8c-3.5-0.7-8.3,0.4-12.4,2.8
		c-6.1,3.5-8.3,8.8-4.7,15.1c0.2,0.4,0.5,0.9,0.8,1.2c-0.9-4.2,2.1-9,7.3-11.9c6.3-3.6,13-3.6,15.9,1.6c2.9,5.1-0.3,10.8-7.4,14.9
		C149.1,71.2,142.3,69.5,138.1,62.1z M162.1,53.1c-1.8-3.1-6.6-2.6-11.5,0.2c-4.7,2.7-8.5,7-6.7,10.1c1.7,3.1,5.7,3.2,11.2,0
		C161,60.1,163.9,56.2,162.1,53.1z"/>
</g>
</svg>
