<svg id="Layer_1" data-name="Layer 1" xmlns="http://www.w3.org/2000/svg" viewBox="0 0 97.33 116.39"><defs><style>.cls-1{isolation:isolate;}.cls-2{fill:#fff;}</style></defs><title>monogram</title><g id="Page-1"><g id="Desktop-1920"><g id="w" class="cls-1"><g class="cls-1"><path class="cls-2" d="M50.32,107.44a1.87,1.87,0,0,1,.82-1.1,5.14,5.14,0,0,0,1.19-.73q.73-.73,1.56-1.74a3.09,3.09,0,0,0,.83-1.92v-.19q-.37.38-1.65,1.38a15,15,0,0,1-1.65,1.19,5.74,5.74,0,0,1-3.21,1.46,32.05,32.05,0,0,1-3.57.19,12.32,12.32,0,0,0,1.37,5.5c.92,1.83,1.8,3.48,2.66,4.94v.19c0,.24-.18.36-.55.36l-.37-.18a18.09,18.09,0,0,1-4.4-3.94,38,38,0,0,0-4-4.31A6,6,0,0,1,37,112.3a6.43,6.43,0,0,1-4.12,1.56,5.58,5.58,0,0,1-3.21-.92A3.25,3.25,0,0,1,28.32,110a5.31,5.31,0,0,1,2.57-4.76l4.22-2.94v-.18a2,2,0,0,0-.55-1.47c-.13-.24-.43-.94-.92-2.11a8.37,8.37,0,0,0-1.1-2.1v-.19c0-.48.34-.91,1-1.28a2.48,2.48,0,0,0,1-2.38v-.92a1.77,1.77,0,0,0-.83-.46c-.31-.06-.52-.33-.64-.82h-.73a1.62,1.62,0,0,0-1.84,1.83,1.15,1.15,0,0,0,.65,1.19,1,1,0,0,1,.64,1,4.32,4.32,0,0,1-1.56,3.39,5,5,0,0,1-3.39,1.38,2.89,2.89,0,0,1-2-.55,3,3,0,0,1-.91-1,3,3,0,0,0-.92-1,28.19,28.19,0,0,0-4.22-2.2,45.37,45.37,0,0,1-4.21-2,1.8,1.8,0,0,1-1.29-.55v-.19a3.38,3.38,0,0,1-.27-1,3.39,3.39,0,0,0-.27-1v-3.3A2.32,2.32,0,0,1,13.48,85a15.47,15.47,0,0,1,1.74-1.65,12.21,12.21,0,0,1,2-1.37,3.6,3.6,0,0,1,1.55-.55h2.94q.18,0,.45.36a7.18,7.18,0,0,0,.65.74A18.68,18.68,0,0,1,24,85.08c.55,1.35,1.13,2,1.74,2,.24,0,.58-.21,1-.64s.88-.92,1.37-1.47a14.16,14.16,0,0,0,1.28-1.65,13.83,13.83,0,0,0,.74-1.19,15.5,15.5,0,0,0,1.28-1.65,16,16,0,0,0,1.1-1.65l.18-.36a.52.52,0,0,1,.19-.37,15.49,15.49,0,0,0,.55-1.47,6.08,6.08,0,0,0,.36-1.46c.37-.12.74-.58,1.1-1.38a16.09,16.09,0,0,0,.92-2.56,23.8,23.8,0,0,0,.55-2.66,15.25,15.25,0,0,0,.18-1.84,3.2,3.2,0,0,0-.55-2.1,2.36,2.36,0,0,1-.55-1.56c0-.12.25-.34.74-.64a17.42,17.42,0,0,1,1.65-.92c.61-.3,1.19-.58,1.74-.82a2,2,0,0,0,1-.74,15.73,15.73,0,0,0,4.31-5.86,72,72,0,0,0,2.48-7v-.36c0-.25-.07-.37-.19-.37h-.73a38.59,38.59,0,0,0-3.94.18,12.51,12.51,0,0,0-3.76,1.1c-.61.25-.85.43-.73.55s0,.31-.37.55c-.61.25-.89.46-.82.64s0,.4-.28.65l-.18-.19a.16.16,0,0,1-.18-.18,1.37,1.37,0,0,0-.65.37,6.77,6.77,0,0,0-.64.55,6.23,6.23,0,0,1-2.11-2.75,18.14,18.14,0,0,0-1.55-3.12c-.13-.24-.43-.73-.92-1.47A4.26,4.26,0,0,0,29.24,42c0-.12-.21-.39-.64-.82s-.64-.71-.64-.83c-.25,0-.49-.3-.74-.92v-.36a.33.33,0,0,1,.37-.37H28a22.93,22.93,0,0,0,7.51,1.65c2.57.12,5.13.18,7.7.18h4.67q2.11,0,4.68-.18v-.18a3.3,3.3,0,0,0-1.19-1.93,14.17,14.17,0,0,0-2.75-2.1q-1.56-.91-3-1.65a5.65,5.65,0,0,0-2.2-.74,1.76,1.76,0,0,0,.1.64,2.13,2.13,0,0,1,.09.65,1.29,1.29,0,0,1-.83,1.28,3.48,3.48,0,0,1-1.37.37,4.87,4.87,0,0,1-2.93-1.1A3.18,3.18,0,0,1,36.94,33a2.57,2.57,0,0,1,.82-2,7.21,7.21,0,0,1,1.93-1.19A14.23,14.23,0,0,1,42,29.09a15.16,15.16,0,0,0,2.11-.64A6,6,0,0,0,46,26.89a2.8,2.8,0,0,1,2.29-1A6.14,6.14,0,0,1,51.51,27a4.41,4.41,0,0,1,2.11,2.57c.12.24,0,.43-.37.55s-.55.3-.55.55c0,.49.37.73,1.1.73,1.22,0,1.83-.85,1.83-2.57A2.67,2.67,0,0,0,55,27a4.74,4.74,0,0,0-1.37-1.1c-.49-.24-.95-.46-1.38-.64s-.64-.39-.64-.64a.16.16,0,0,1,.18-.18l.19-.19q2-1.65,3.39-3a15.94,15.94,0,0,0,2.29-2.84A16.09,16.09,0,0,0,59.21,15a27.31,27.31,0,0,0,1-4.49h1.65L64.43,18a9,9,0,0,0,1.83,3.3,26,26,0,0,0,2.57,2.57c-1,1-1.74,1.8-2.29,2.47a5,5,0,0,0-.83,3.21v1.28a3,3,0,0,0,2.2.92.82.82,0,0,0,.92-.92c0-.24-.15-.39-.46-.46a.57.57,0,0,1-.46-.64,3.93,3.93,0,0,1,1.47-2.84,4.31,4.31,0,0,1,2.93-1.37,2.35,2.35,0,0,1,1.56.54,6.51,6.51,0,0,0,1.38.92l1.74.83,1.74.82c.73.37,1.68.8,2.84,1.28a2.49,2.49,0,0,1,1.74,2.39,2.58,2.58,0,0,1-1.65,2.56,7.69,7.69,0,0,1-3.12.74c-1.09,0-1.71-.37-1.83-1.1s-.25-1.1-.36-1.1h-.56A16.68,16.68,0,0,0,69.93,38a5.47,5.47,0,0,0-.55.73,7.56,7.56,0,0,0-.55.92l-.37.36.37.19H79.92c.79,0,1.65,0,2.56-.09s1.78-.12,2.57-.19,1.31-.09,1.56-.09a12.38,12.38,0,0,0,2.2-.37,12.19,12.19,0,0,0,2-.54c.62-.25,1.22-.52,1.84-.83a4.13,4.13,0,0,1,1.83-.46.5.5,0,0,0,.37.19l.18.36-3.85,5a1.91,1.91,0,0,0-.37,1,1.88,1.88,0,0,1-.36,1,13.77,13.77,0,0,0-.55,1.28,4.07,4.07,0,0,1-.73,1.28,4.63,4.63,0,0,0-.56.83c-.24.43-.42.76-.54,1l-.19.18a11.14,11.14,0,0,0-1.46-1.1c-.74-.49-1.23-.79-1.47-.92l-.37-.36-.18-.19-3.57-.64a21.14,21.14,0,0,0-3.58-.27h-2.2a.16.16,0,0,0-.18.18v.18a1.68,1.68,0,0,0,.18.74c.12.24.24.49.37.73a69.75,69.75,0,0,0,2.75,6.78A33.63,33.63,0,0,0,82,61.07L84,62.36c.92.61,1.44,1.1,1.56,1.46a21.94,21.94,0,0,0,2.11,10.63,46.24,46.24,0,0,0,5.95,9,8.24,8.24,0,0,1,1,1.47c.43.73.89,1.1,1.38,1.1.24,0,.48-.24.73-.73l.82-1.65c.31-.61.61-1.25.92-1.93a2.64,2.64,0,0,1,1.19-1.37h.92a6.74,6.74,0,0,1,3.3.91,13.64,13.64,0,0,1,3,2.3,12.57,12.57,0,0,1,2.29,3.11,7.27,7.27,0,0,1,.92,3.39v1.1a3,3,0,0,1-1,.92c-.43.24-.76.43-1,.55a7.25,7.25,0,0,1-3,1.1c-1,.12-2.17.3-3.39.55a10.8,10.8,0,0,0-4.86,1.83c-1.4,1-2.78,2-4.12,3.12-.62,0-.92-.25-.92-.74a2.54,2.54,0,0,1,.46-1.55,2.66,2.66,0,0,0,.46-1.56,6.51,6.51,0,0,0-.37-2.29c-.25-.67-.85-1-1.83-1s-1.65.49-1.65,1.46.3,1.56.91,1.75a3.43,3.43,0,0,1,1.66,1.19.76.76,0,0,1-.19.55l-.37.36-1.46,2.2-1.47,2.2c-.12,0-.18.13-.18.37A39.53,39.53,0,0,1,91,104.7a20.53,20.53,0,0,1,2.29,2.74,5.19,5.19,0,0,1,1,2.94,3.47,3.47,0,0,1-1.65,3.2,6.85,6.85,0,0,1-3.67,1,5.37,5.37,0,0,1-1.46-.27c-.62-.19-1.26-.4-1.93-.64a5.53,5.53,0,0,1-1.74-1,2,2,0,0,1-.73-1.56v-2.38c0-.74.45-1.29,1.37-1.65a6.21,6.21,0,0,1,2.11-.55h.18c0-.25-.21-.4-.64-.46a8.07,8.07,0,0,0-.82-.09,1.25,1.25,0,0,0-.92.36c-1.22,1.72-2.51,3.37-3.85,5a31.37,31.37,0,0,1-4.58,4.4A13.33,13.33,0,0,1,74.24,117a13.51,13.51,0,0,0-1.74,1.29,5.15,5.15,0,0,1-1.1.18c-.49,0-.74-.06-.74-.18,0-.49.19-.74.55-.74q1.65-2.19,3.12-4.49a33.37,33.37,0,0,0,2.56-4.85l.56-.74h.18a3.61,3.61,0,0,1-.18.74,8.89,8.89,0,0,1-.37.91,4.67,4.67,0,0,0,1.1-2.75,13.41,13.41,0,0,0-1.65.1,13.67,13.67,0,0,1-1.65.09,11.4,11.4,0,0,1-5.68-1.83l-.74-.37c-.49-.25-.73-.43-.73-.55l-.18-.19h-.37l1.74,2.11a24.63,24.63,0,0,0,1.74,1.93,3.28,3.28,0,0,1-.91.91,3.23,3.23,0,0,0-.92.92c-.25.25-.55.58-.92,1s-.61.64-.73.64a13.14,13.14,0,0,0-1.28,1.83,13.74,13.74,0,0,1-1.28,1.84c-.25,0-.37.24-.37.73-.62,1.71-1.22,3.48-1.83,5.31a17.11,17.11,0,0,0-.92,5.5,1.49,1.49,0,0,1-.92.55.85.85,0,0,1-.91-.73,4.63,4.63,0,0,1-.19-1.1V123.3a5,5,0,0,0-.18-1.74,24.41,24.41,0,0,0-1.56-6.14,11.74,11.74,0,0,0-3.76-5,22.19,22.19,0,0,0-1.74-1.47,14,14,0,0,0-1.74-1.28ZM13.84,88A6.71,6.71,0,0,0,14.39,91c.37.73,1.35,1.1,2.94,1.1a4.2,4.2,0,0,0,1.19-.28,1.67,1.67,0,0,0,1-.64L19,91c0-.12-.09-.18-.28-.18s-.27-.06-.27-.19l-.19-.37h-.36a5,5,0,0,1-1.29-.73,7.89,7.89,0,0,1-1.1-.91,2.14,2.14,0,0,1,.1-.55.43.43,0,0,1,.45-.37,13.68,13.68,0,0,0,3.21-.37,3.9,3.9,0,0,0,2.48-1.83A2.15,2.15,0,0,0,22.46,84a2,2,0,0,0-.18-.91c0,.49-.37.73-1.1.73l.55.55h-.37c0,.12-.15.22-.46.27a3.58,3.58,0,0,0-.82.28h-.19l-.18-.37.55-.36h-.37a1.3,1.3,0,0,0-.55.09,1.27,1.27,0,0,1-.55.09h-.18c.12-.61.61-1,1.47-1.28h-.19a2.41,2.41,0,0,1-1,.36,6.53,6.53,0,0,1-1,.19h-.19l.19-.19a4.38,4.38,0,0,1,.91-.55,3.94,3.94,0,0,0,1.1-.73h-.36a4.86,4.86,0,0,0-3.3,1.56,13.24,13.24,0,0,0-2.39,2.84Zm5.5,4.4a.8.8,0,0,0-.36.09,1.34,1.34,0,0,1-.55.09h-.55V93l.18-.18A3.13,3.13,0,0,0,19,92.6a3,3,0,0,1,.91-.18h-.55Zm-.18-3.85a2.2,2.2,0,0,1,.73.27,2.23,2.23,0,0,0,.92.28.76.76,0,0,1-.18-.55A.32.32,0,0,1,21,88.2l.19.18,2,.74h.19a1.61,1.61,0,0,0,.91-.46c.37-.31.55-.58.55-.83a4.85,4.85,0,0,0-.55-1.74c-.36-.79-.79-1.19-1.28-1.19A3.8,3.8,0,0,1,21.18,87,5.15,5.15,0,0,0,19.16,88.57Zm1.28,3.66q0-.18-.09-.18t-.09.18Zm.92-7.33c0,.25-.18.37-.55.37h-.37l.19-.37ZM21,89.12a.18.18,0,1,0,0,.36.18.18,0,1,0,0-.36ZM81.48,99.75c.61-.37.82-1.2.64-2.48s0-2,.46-2.29v4.77h.18a1.68,1.68,0,0,1,.18-.74,1.17,1.17,0,0,1,.1-.55.8.8,0,0,0,.09-.36,3.59,3.59,0,0,0,.18-1.38V95.53a16,16,0,0,1,.55-2,1.43,1.43,0,0,1,1.47-1.09h.55a3.07,3.07,0,0,1-1,.91,1.35,1.35,0,0,0-.64,1.28,1.36,1.36,0,0,0,.82,1.2,6.6,6.6,0,0,0,1.56.64,5.87,5.87,0,0,1,1.56.18,5.74,5.74,0,0,0,1.55.18q0-.36-.18-.36A3.58,3.58,0,0,0,88.9,96a1.72,1.72,0,0,0-.64-.28,2.38,2.38,0,0,0-.55-.36,3.81,3.81,0,0,1-.92-.74h-.18a.52.52,0,0,1,.18-.36,4.67,4.67,0,0,0,.64-2.11,2.65,2.65,0,0,1,.46-1.56,1.42,1.42,0,0,1-.27-.73,4.33,4.33,0,0,1-.09-.73,1.91,1.91,0,0,1,1.09.64,2,2,0,0,0,1.1.64.79.79,0,0,1,.56.18c.24.25.42.37.54.37a3.52,3.52,0,0,1,2,1.65,8.4,8.4,0,0,1,.73,2.93,1.19,1.19,0,0,0,.55-.82,4.17,4.17,0,0,0,.19-1q0,.18.27.27a1.23,1.23,0,0,1,.46.28h.18a8.1,8.1,0,0,1-.91-1.65A14,14,0,0,1,93.48,90c-.3-1.22-.7-1.83-1.19-1.83l-.18.18a.38.38,0,0,0-.28.09.33.33,0,0,1-.27.1H91a2.23,2.23,0,0,1-.73-.28c-.37-.18-.56-.33-.56-.46-.24-.24-.67-.64-1.28-1.19a8.27,8.27,0,0,0-1.28-1L85.6,84.08A2.86,2.86,0,0,1,84.78,82c0-.25.18-.37.55-.37s.73.52,1.46,1.56a10.11,10.11,0,0,0,1.83,2.11c.13.12.46.43,1,.91a6.93,6.93,0,0,0,1.19.92c0,.12.06.18.19.18l.18.19a1.36,1.36,0,0,0,.55-.19,1.41,1.41,0,0,1,.55-.18h.18a1.49,1.49,0,0,1,.92.55,3.72,3.72,0,0,1,.73.92c.12-.12.4,0,.83.36a14,14,0,0,1,1.28,1.28c.43.5.85,1,1.28,1.38s.77.64,1,.64h.19q-3.12-3.11-6-6.14a41.2,41.2,0,0,1-5.13-6.41A31.8,31.8,0,0,1,84,72.44,23.72,23.72,0,0,1,82.94,64L81,62.08c-.67-.67-1.38-1.31-2.11-1.92A21.24,21.24,0,0,1,75,53.92a61.71,61.71,0,0,1-2.47-6.78,3.79,3.79,0,0,1-.19-1.28.72.72,0,0,1,.55-.73h-.55a.32.32,0,0,1-.36-.37.48.48,0,0,1,.55-.55h6a19.16,19.16,0,0,1,2.66.18,2.71,2.71,0,0,0,1.65.46,5.8,5.8,0,0,1,2,.46,8.25,8.25,0,0,0,1.1.64,3.51,3.51,0,0,1,.91.64,22.33,22.33,0,0,0,1.65-3.2,23,23,0,0,1,1.65-3.21V40a13.83,13.83,0,0,0-2.66.28,21,21,0,0,0-2.47.64H73.23c0,.12-.31.18-.92.18H68.92a6.87,6.87,0,0,1-2.11-.18,5.55,5.55,0,0,1-3.2-.92c-.92-.61-1.87-1.28-2.84-2l-.19-.18c-.12,0-.18-.06-.18-.19a8.38,8.38,0,0,1-1.93,2.29,4,4,0,0,1-2.65,1c-.74.12-1.78.28-3.12.46s-2.08.27-2.2.27H36.21a10.86,10.86,0,0,1-3.49-.55,10.57,10.57,0,0,0-3.3-.55h-.36c.12,0,.18.13.18.37.12,0,.34.18.64.55s.52.61.64.73c.74,1,1.41,1.9,2,2.75s1.22,1.78,1.83,2.75l.19.19a13,13,0,0,1,1.37-1,4.56,4.56,0,0,1,1.56-.46l.18-.18h-.91a1.94,1.94,0,0,1,1.1-1,13,13,0,0,1,1.46-.46,21.07,21.07,0,0,1,2.75-.46C43.54,44.12,44.51,44,45,44h3.3c.25.12.37.4.37.82v1a5.84,5.84,0,0,1-.37,1.83,16.81,16.81,0,0,1-.73,1.74c-.37.8-.73,1.65-1.1,2.57s-.7,1.8-1,2.66-.52,1.46-.64,1.83a8.44,8.44,0,0,1-1.56,2.38c-.67.74-1.31,1.41-1.92,2A12.7,12.7,0,0,1,39,62.17c-1.1.49-1.65.86-1.65,1.1a4.19,4.19,0,0,0,.18,1.29,4.08,4.08,0,0,1,.18,1.28,19.73,19.73,0,0,1-2.11,9.44q-2.1,3.94-4.85,8.15a5.25,5.25,0,0,0-.46.55c-.18.25-.34.37-.46.37a48.7,48.7,0,0,1-4.12,4.31A26.65,26.65,0,0,1,21,92.05h.19a1.67,1.67,0,0,0,.73-.18.69.69,0,0,0,.46-.1.37.37,0,0,1,.27-.09H23l-.18.19-.92.45a3.21,3.21,0,0,0-.73.46,5.44,5.44,0,0,0,1.28-.27,5.11,5.11,0,0,1,1.28-.28h.19a4.27,4.27,0,0,1-1.1.73,4.17,4.17,0,0,0-1.1.74,5.46,5.46,0,0,1,1.19-.37,7.11,7.11,0,0,1,1-.18h.18c0,.12-.31.49-.92,1.1a3.12,3.12,0,0,0,.74-.09,3,3,0,0,1,.73-.1H25a3.85,3.85,0,0,1-1.65,1.1h.18a1.64,1.64,0,0,0,.73-.18A1.68,1.68,0,0,1,25,94.8c.36,0,.48.24.36.73a2.53,2.53,0,0,0,.55-.09,2.62,2.62,0,0,1,.55-.09h.37c-.13,0-.19.06-.19.18v.55H28l-.74.55h.37a2.77,2.77,0,0,0,1.1-.37c.49-.24.73-.55.73-.91L28,91.68l-.19-.36a8.5,8.5,0,0,1,.74-2.94c.48-1.22,1.16-1.83,2-1.83a2.71,2.71,0,0,1,1,.18,2.14,2.14,0,0,0,.83.19q.91,0,1.92-1.38a17.53,17.53,0,0,1,1.38-1.74L38,81.42h.18a6.24,6.24,0,0,1-.36,2.11,6,6,0,0,0-.37,2.1A12.56,12.56,0,0,0,38,89.3c0,.24,0,.34.09.27a.38.38,0,0,1,.28-.09,9.7,9.7,0,0,0,.09,1.19q.09.83.09,1.2a.16.16,0,0,0-.18.18v.37a.16.16,0,0,0,.18.18.56.56,0,0,1,.37.18v-.91h.36l.37,1.64a5.77,5.77,0,0,1,.09-.91,5.88,5.88,0,0,0,.09-.92,1.64,1.64,0,0,0,.18-.73.72.72,0,0,1,.19-.55l.18.92q0,.92.18,3.39A32.6,32.6,0,0,0,41,98.1V88.2l.55-5.13.18-.55c.12-.74.25-1.56.37-2.48a17.92,17.92,0,0,1,.55-2.66A4.89,4.89,0,0,1,43,76.29a18.18,18.18,0,0,0,.64-1.93c.18-.67.37-1.31.55-1.92a5.4,5.4,0,0,0,.27-1.29,17.87,17.87,0,0,0,.92-2.47c.37-1.16.79-1.74,1.28-1.74a4.07,4.07,0,0,1,1.56.46,5.13,5.13,0,0,1,1.38.82c.24.12.91.49,2,1.1s1.77,1,2,1.1a1.41,1.41,0,0,0,.36.27,1.8,1.8,0,0,1,.37.28,15,15,0,0,0,.18-1.92V67.49a2.51,2.51,0,0,0-.36-1.65l-2.48-2a18,18,0,0,1-2.47-2.38H49l-.37.18-.18-.18v-.73a6,6,0,0,1,.36-2.2c.25-.61.49-1.35.74-2.2L51,51.45c.43-1.53.89-3.14,1.37-4.86a2.2,2.2,0,0,1,.28-.91c.18-.37.39-.55.64-.55a1.06,1.06,0,0,1,.18.73l.74-.92h6.6a2.65,2.65,0,0,0,.73-.09,2.53,2.53,0,0,1,.55-.09h-9c0-.49.18-.73.55-.73q.91,0,3.48-.09c1.71-.06,2.87-.1,3.48-.1h5.87a2.13,2.13,0,0,1,.73,1A1.54,1.54,0,0,1,67.36,46l4.4,13.2,1.47,3.67.18.18c0,1-.7,1.8-2.11,2.47a17.84,17.84,0,0,0-3,1.74,8.91,8.91,0,0,0-1.19,1,4.52,4.52,0,0,1-1.56,1,15.86,15.86,0,0,1-.37-3.39v3.76l-.36.18a1.8,1.8,0,0,1-.37.28,1.64,1.64,0,0,0-.37.27L47.75,80.13c.61.62,1.22,1.2,1.84,1.75s1.22,1.13,1.83,1.74c.24.24.58.61,1,1.1s.76.85,1,1.1a1.44,1.44,0,0,0,.65-1,7.69,7.69,0,0,0,.09-1,2.27,2.27,0,0,0-.46-1.47,1.69,1.69,0,0,1-.46-.73v-.18A3.49,3.49,0,0,1,54.81,80a8.84,8.84,0,0,0,1.92-1.19,33.14,33.14,0,0,0,2.84-1.74,20.77,20.77,0,0,0,2.66-1.92,1.66,1.66,0,0,0,.64-.28,3.27,3.27,0,0,0,.65-.46l.18.19c0,.24-.07.39-.18.45s-.19.22-.19.46a11.63,11.63,0,0,0,1.93-1A4.59,4.59,0,0,0,66.81,73a1.59,1.59,0,0,1-1.1.55h-.18q.73-.74,1.38-1.29a5.42,5.42,0,0,1,1.55-.91L74,68.59c0-.12.19-.19.55-.19.61,0,.79.49.55,1.47a45.92,45.92,0,0,1,2.11,6.42c.55,2.2,1.13,4.39,1.74,6.59a7.37,7.37,0,0,0,.46,1.38,6.06,6.06,0,0,1,.46,1.56q0,.36.09,1.65T80,89.12l.18.18c0,.12,0,.73.1,1.83a19.71,19.71,0,0,0,.27,2.57v5.5c.12,0,.18-.12.18-.37l.55-2.57h.19Zm-60.3-5.69a.18.18,0,0,0,0-.36Zm.55-11.18a.17.17,0,0,1,.18.19h.18l-.36-.55v.36Zm.91,11.37a.18.18,0,1,1,0,.36.18.18,0,0,1,0-.36ZM27,97.91a2.61,2.61,0,0,0-1.46.37h.36a2.87,2.87,0,0,0,1.28-.37Zm0-1.28a.16.16,0,0,0-.18.18c0,.13.06.19.18.19s.18-.06.18-.19A.16.16,0,0,0,27,96.63Zm.92,1.1c0-.12-.06-.18-.19-.18a.16.16,0,0,0-.18.18Zm5.86-1.1h.37a.16.16,0,0,0,.18-.18h2.94a6,6,0,0,1,.91-.74,1.22,1.22,0,0,0,.55-1.1,3.09,3.09,0,0,0-.18-.73c-.12-.37-.25-.55-.37-.55H36.94q0-.36.09-1.74t.09-1.74c-.12-.61-.27-1.56-.46-2.84s-.27-2-.27-2.11l-.18-.55A2,2,0,0,0,34.56,86a2.31,2.31,0,0,1-.74,1.65.73.73,0,0,1-.55-.73c-.24.24-.46.33-.64.27s-.4,0-.64.28l-.18.18a.74.74,0,0,1-.55-.18.5.5,0,0,1-.37-.19h-.18c-.37,0-.68.31-.92.92a3.13,3.13,0,0,1-.37.92c-.24.49-.43.85-.55,1.09v.19a8.63,8.63,0,0,0,.19,1.37,9.62,9.62,0,0,1,.18,1.38,2.55,2.55,0,0,0,.83.82,4,4,0,0,1,1,1v-.37a1.2,1.2,0,0,0-.64-1.1,4.55,4.55,0,0,1-1-.73v-.73a2.8,2.8,0,0,1,1-2.29,3.79,3.79,0,0,1,2.48-.83,2.09,2.09,0,0,1,2.29,2,26.64,26.64,0,0,1,.27,3.48,1.17,1.17,0,0,1-.82,1.1,2.69,2.69,0,0,0-1.19.92Zm-4.95,13.2a4.71,4.71,0,0,0,.19,1.1c.12.49.36.73.73.73a3.19,3.19,0,0,1-.73-2.93A3.22,3.22,0,0,0,28.87,109.83Zm.37-1.84a.17.17,0,0,0-.18.19.18.18,0,1,0,.36,0A.17.17,0,0,0,29.24,108Zm-.18.37q.18,0,.18.09c0,.07-.06.09-.18.09Zm.36-.73a.18.18,0,1,0,0,.36c.25,0,.37-.06.37-.18S29.67,107.63,29.42,107.63Zm.46-11.55c-.3.25-.34.37-.09.37l.18-.19.37-.36C30.34,95.78,30.19,95.84,29.88,96.08Zm3,8.43a2.56,2.56,0,0,0-1.84,1,6.47,6.47,0,0,0-1.28,1.92A4.11,4.11,0,0,1,31.26,106,6.33,6.33,0,0,0,32.91,104.51Zm-2.75,7.33q0-.18-.09-.18c-.07,0-.1.06-.1.18Zm.18,0c0,.13,0,.19.09.19s.09-.06.09-.19Zm.55.37a.16.16,0,0,0-.18-.18q-.2,0,0,.18Zm0-17.23a.16.16,0,0,0-.18.18c0,.13.06.19.18.19s.18-.06.18-.19A.16.16,0,0,0,30.89,95Zm23.83,14.48a23.91,23.91,0,0,1,5,9.53,7,7,0,0,1,.27,1.28,1.78,1.78,0,0,0,.46,1.1,22.43,22.43,0,0,1,3.3-8,44,44,0,0,1,5.5-6.69,17.39,17.39,0,0,0-1.93-1.65,6.33,6.33,0,0,1-1.74-2,13.18,13.18,0,0,1-.82-1.46,3.69,3.69,0,0,1-.46-1.65v-1c0-.42.12-.64.37-.64h.18a12.39,12.39,0,0,0,2.66,3.85,5.66,5.66,0,0,0,4.12,2H72a10.36,10.36,0,0,1-4.77-2.93,15.57,15.57,0,0,1-2.93-4.76,2.19,2.19,0,0,0-.37,1.28v1.1a7,7,0,0,0,1,4c.67,1,1.49,2.14,2.47,3.48,0,.13,0,.19.1.19s.09.06.09.18a.16.16,0,0,0,.18.18.52.52,0,0,1-.18.37.56.56,0,0,1-.19.37.52.52,0,0,0-.18.36,4.7,4.7,0,0,0-1,.83l-.82.82a9.14,9.14,0,0,0-1,1.38,8.43,8.43,0,0,1-1,1.37,31,31,0,0,0-2.56,6c0,.25-.07.37-.19.37a2.3,2.3,0,0,1-1.19-1.93,9.08,9.08,0,0,0-.64-2.29c-.25-.48-.58-1.16-1-2a6.94,6.94,0,0,0-1-1.65,2.15,2.15,0,0,0-.55-.83c-.36-.43-.61-.7-.73-.82a5,5,0,0,0-1.28-1.19c-.62-.43-.92-.77-.92-1a5.3,5.3,0,0,1,1.1-1.83A17,17,0,0,0,55.82,103a20.15,20.15,0,0,0,.73-3.39,29.42,29.42,0,0,0,.18-3.39V95c-.24.12-.58.8-1,2a10,10,0,0,1-1.2,2.56,8.17,8.17,0,0,1-2.2,2.39,23.06,23.06,0,0,1-3.11,1.83.76.76,0,0,1-.55.18.54.54,0,0,0-.37.18H38.41a9.15,9.15,0,0,0-4.31,1.38q-2.47,1.38-2.48,3.57c0,.74.43,1.1,1.29,1.1a3.66,3.66,0,0,0,.82-.09c.3-.06.46-.21.46-.46a1.2,1.2,0,0,0-.73-1.1l1.1-1.46c-.25,0-.55.24-.92.73a2.25,2.25,0,0,0-.55,1.28v.37a.16.16,0,0,0,.18.18v.19h-.73a.28.28,0,0,1-.27-.19.31.31,0,0,0-.28-.18v-.73a3.25,3.25,0,0,1,2.29-3A24.4,24.4,0,0,1,38,104.33H41a13.6,13.6,0,0,1,2.2.18,13.62,13.62,0,0,0,2.2.19,9.94,9.94,0,0,0,5.77-1.47,19.7,19.7,0,0,0,4.13-4,3.48,3.48,0,0,0,.46-.55c.06-.12.21-.19.45-.19v1.47c-.12.37-.24.8-.36,1.28s-.25.71-.37,1-.25.58-.37.82l-.73,1.1a7.5,7.5,0,0,1-.92,1.11,10.07,10.07,0,0,0-.73.82,8.63,8.63,0,0,1-.73.82,5.46,5.46,0,0,0,1.37,1.29A5.46,5.46,0,0,1,54.72,109.46Zm-21.45,3.12a.17.17,0,0,0,.19-.19.17.17,0,0,0-.19-.18Zm.55-.74c-.24,0-.36.09-.36.28s.12.27.36.27Zm.37,0A.17.17,0,0,0,34,112a.18.18,0,1,0,.36,0A.17.17,0,0,0,34.19,111.84Zm.37-63.41c.24,0,.36-.06.36-.19s-.12-.18-.36-.18Zm.55-.19a.17.17,0,0,0-.19.19c0,.12.06.18.19.18a.16.16,0,0,0,.18-.18A.17.17,0,0,0,35.11,48.24Zm.36,63.05a.17.17,0,0,0-.18.19.16.16,0,0,0,.18.18.17.17,0,0,0,.19-.18A.17.17,0,0,0,35.47,111.29Zm.55-.18q-.36,0-.36.18c0,.13.12.19.36.19Zm.19-4.4h1.1c.24,0,.42.18.55.55a3.07,3.07,0,0,1,.18.92v.36a4.24,4.24,0,0,0-.64-1.19A4.24,4.24,0,0,0,36.21,106.71Zm.18,4a.17.17,0,0,0-.18.19.18.18,0,1,0,.36,0A.17.17,0,0,0,36.39,110.74Zm.92-8.61a.16.16,0,0,0,.18-.18.17.17,0,0,0-.18-.19Zm3.84-1.83a4.85,4.85,0,0,0-1.74.55,14.18,14.18,0,0,0-1.74.91,4.74,4.74,0,0,0,1.74-.55c.8-.36,1.44-.67,1.93-.91ZM39.87,97q-.18-.18-.18.09t.18.27a.18.18,0,0,0,0-.36Zm.37-51.69c-.13,0-.19.09-.19.27s.06.28.19.28.18-.09.18-.28S40.36,45.31,40.24,45.31Zm-.19,53.15c0,.49.06.8.19.92v-.55a1.54,1.54,0,0,0-.09-.46,1.28,1.28,0,0,1-.1-.46ZM41,31c-.25,0-.37.1-.37.28s.12.27.37.27.18-.09.18-.27S41.09,31,41,31Zm-.37,2.75c.25,0,.37-.06.37-.18s-.12-.18-.37-.18ZM41,34q-.18,0-.18.09t.18.09Zm.18.36q-.18,0-.18.09c0,.07.06.1.18.1ZM41,65.47a5.29,5.29,0,0,1,.28-1.74c.18-.55.7-.82,1.55-.82A2.09,2.09,0,0,1,44.73,64a4.65,4.65,0,0,1,.64,2.39,1.62,1.62,0,0,1-1.83,1.83,2.35,2.35,0,0,1-1.84-.82A2.82,2.82,0,0,1,41,65.47Zm.18,33c-.12-.12-.18,0-.18.28s.06.46.18.46Zm0-66.71a.72.72,0,0,0,.19.55v-.37c0-.24-.07-.37-.19-.37Zm.19,2.93c-.13,0-.19,0-.19.09s.06.09.19.09Zm0-2a.18.18,0,1,0,0-.36Zm0,12.65q.18.18.18,0Zm.18,54.8q-.18,0-.18.09c0,.07.06.1.18.1s.18,0,.18-.1S41.64,100.11,41.52,100.11Zm0,7.88a.17.17,0,0,0-.18.19.18.18,0,1,0,.36,0A.17.17,0,0,0,41.52,108Zm2-44.17-.19-.18H42.07l-.18.18c-.13,0-.19.06-.19.18a.78.78,0,0,0-.27.74,3,3,0,0,1,.09.73,3.15,3.15,0,0,0,1.28-.55c.61-.36.92-.61.92-.73Zm-2,31.71v1.19a7.84,7.84,0,0,0,.18,1.38V90.21A26.39,26.39,0,0,0,41.52,93Zm.18,12.83a.17.17,0,0,1,.19.18.17.17,0,0,1-.19.19c-.12,0-.18-.06-.18-.19A.16.16,0,0,1,41.7,108.36Zm.19-21.44c-.13-.12-.19-.1-.19.09s.06.21.19.09.18,0,.18-.09S42,86.92,41.89,86.92Zm0-55.54c0,1,.42,1.5,1.28,1.56a7.18,7.18,0,0,1,2.2.46,5.82,5.82,0,0,0,1.56.91,5,5,0,0,0,1.56.55,18.11,18.11,0,0,1,2.1,1.65c.67.61,1.32,1.23,1.93,1.84h.18a3.46,3.46,0,0,0-1-1.93,16.81,16.81,0,0,0-2.38-2.29c-.92-.73-1.83-1.4-2.75-2A7.91,7.91,0,0,0,44.45,31a1.92,1.92,0,0,0-1,.19c-.19.12-.46.06-.83-.19v.55Zm.18,2.75a.16.16,0,0,0-.18.18c0,.13.06.19.18.19s.18-.06.18-.19A.16.16,0,0,0,42.07,34.13Zm0,75.15a.18.18,0,1,0,.18.18A.16.16,0,0,0,42.07,109.28Zm0-24.93L43,80.5v-.37l-.92,3.67Zm.18-49.67a.52.52,0,0,0,.19.37v-.19l-.19-.36Zm.19,72.4c-.13,0-.19.06-.19.18s.06.18.19.18a.18.18,0,0,0,0-.36Zm.18.55a.18.18,0,0,0,0,.36ZM43.9,44.94a3.13,3.13,0,0,0-1.28.19H43.9c.37,0,.55-.06.55-.19Zm-1.28,63.42c.24,0,.37-.06.37-.18s-.13-.19-.37-.19Zm.37,0c-.25,0-.37.06-.37.18s.12.19.37.19.18-.06.18-.19A.16.16,0,0,0,43,108.36Zm8.43-15.94a12.65,12.65,0,0,1-3.67,4.12q-2.19,1.56-4.58,3h.18a6.58,6.58,0,0,0,3-1.56A31.6,31.6,0,0,0,49,95.9c.24-.25.64-.61,1.19-1.1s.88-.74,1-.74a.5.5,0,0,0,.19-.36.74.74,0,0,1,.18-.55l.37-.73.18-.37a.16.16,0,0,1,.18-.18.9.9,0,0,1,.19-.46,7.32,7.32,0,0,0,.36-.64,2.25,2.25,0,0,1,.37-.56V90a13,13,0,0,1-1.65,2l-.18-.18a.52.52,0,0,1,.18-.37l.37-.37a3,3,0,0,0,.55-1.83c0-.24,0-.37-.09-.37s-.16-.12-.28-.36A27.52,27.52,0,0,0,49.49,85a25.92,25.92,0,0,0-3.2-3l-1.1-1.1.18-.37.92-.46a2.8,2.8,0,0,0,.73-.46,14.84,14.84,0,0,1,2.38-1.46l2.38-1.29c.37-.24.86-.54,1.47-.91a1.66,1.66,0,0,0,.92-1.47,1.07,1.07,0,0,0-.19-.73,5.67,5.67,0,0,0-.73-.55c-.37-.24-1.07-.67-2.11-1.28s-1.68-1-1.92-1.1a2,2,0,0,0-.64-.37,1.73,1.73,0,0,1-.64-.37h-.19a.54.54,0,0,0-.36.19A22.22,22.22,0,0,0,45.65,75c-.43,1.71-.83,3.37-1.2,5A11.62,11.62,0,0,0,44,82.24a11.72,11.72,0,0,1-.46,2.29,14.94,14.94,0,0,0-.28,2.66c-.06,1.28-.09,2-.09,2.29s0,1-.09,1.84S43,93.09,43,94.06v4.4h.36a3.58,3.58,0,0,0,1.84-.73c.12-.12.33-.3.64-.55a10.07,10.07,0,0,0,.82-.73c.86-.61,1.68-1.22,2.48-1.84a10.42,10.42,0,0,0,2.1-2.19ZM43.17,29.73c0,.12.18.18.55.18a.89.89,0,0,0,.82-.45,4.41,4.41,0,0,1,.65-.83,4.39,4.39,0,0,1-.92.55,3.13,3.13,0,0,1-.92.37A.16.16,0,0,0,43.17,29.73Zm.18,48.76a3,3,0,0,0-.18.91v.37a.73.73,0,0,1,.09-.46.73.73,0,0,0,.09-.46Zm-.18,31.34a.76.76,0,0,0,.18.55v-.74ZM46.1,69.32A7.24,7.24,0,0,0,45,72.25a6.88,6.88,0,0,0-.55,1.56,10.49,10.49,0,0,1-.55,1.74,10,10,0,0,0-.55,2.2v.55l2.75-8.61Zm-2.75,37.76c.12,0,.12-.06,0-.19Zm2.57-62.14c.12-.12,0-.18-.37-.18s-.49.06-.36.18Zm-.37-14.48a.17.17,0,0,0-.18.19.16.16,0,0,0,.18.18.17.17,0,0,0,.19-.18A.17.17,0,0,0,45.55,30.46Zm1.84-3.66a1.07,1.07,0,0,0-.92.55,6.73,6.73,0,0,1-.73.91l1.83-1.46Zm-1.47,3.85a.18.18,0,1,0,.18.18A.16.16,0,0,0,45.92,30.65Zm.37.36H46.1q0-.18.09-.18C46.25,30.83,46.29,30.89,46.29,31Zm.18,0c0,.13,0,.19.09.19s.09-.06.09-.19Zm.18.55c.25,0,.37-.09.37-.27S46.9,31,46.65,31Zm.55,0q0-.18-.09-.18t-.09.18Zm0,0a.17.17,0,0,0,.19.19h.18l-.18-.19Zm.55.37a6,6,0,0,0,.74.64,1.22,1.22,0,0,0,.73.28l-.55-.55a1.05,1.05,0,0,0-.73-.37Zm.19,36.47a.17.17,0,0,0-.19.19c0,.12.06.18.19.18a.16.16,0,0,0,.18-.18A.17.17,0,0,0,47.94,68.4Zm.36.19q-.18,0-.18.09t.18.09c.12,0,.19,0,.19-.09S48.42,68.59,48.3,68.59ZM51.23,84.9l-.36-.73a2,2,0,0,0-.37-.55,2.18,2.18,0,0,1-.36-.55L50,82.88a8.53,8.53,0,0,0-1-.82,6.91,6.91,0,0,1-.82-.64v.18ZM48.49,26.61a1.54,1.54,0,0,1,.55.19l1.1.55.36.18h.37a4.09,4.09,0,0,0-1.19-.73,3.38,3.38,0,0,0-1.19-.37Zm.18,42.16a.16.16,0,0,0-.18.18c0,.13.06.19.18.19Zm.37,0c-.25,0-.37.06-.37.18s.12.19.37.19Zm0,.37q.18.18.18,0Zm.91.18q-.36,0-.36.18c0,.13.12.19.36.19Zm.19-11.91c-.13,0-.19.06-.19.18s.06.18.19.18a.18.18,0,1,0,0-.36Zm0,12.28q.18,0,.18.09t-.18.09c-.13,0-.19,0-.19-.09S50,69.69,50.14,69.69ZM50.32,57q-.18,0-.18.09t.18.09q.18,0,.18-.09T50.32,57Zm.18,12.65a.18.18,0,1,0,0,.36Zm0-35.38c.25,0,.37-.06.37-.18S50.75,34,50.5,34Zm0,22.55c.12-.37.34-1,.64-2l.64-2A5.49,5.49,0,0,0,52.43,51a14.23,14.23,0,0,0,.27-1.46v-.37l-2.2,7.33Zm0,13.38c.25,0,.37-.06.37-.19s-.12-.18-.37-.18Zm2.93-6,.37.18h.55l.18-.37v-.54a.34.34,0,0,1,.1-.28.73.73,0,0,0,.09-.46V49.89l-.19-.36V47.14a2.38,2.38,0,0,0-.64,1.47,6.47,6.47,0,0,1-.46,1.83L50.87,60.71l-.18.18a1.2,1.2,0,0,0,.27.73,4.5,4.5,0,0,0,.46.55c.24.25.61.58,1.1,1A4,4,0,0,1,53.43,64.19Zm-2.38,5.86a.17.17,0,0,0-.18.19.18.18,0,1,0,.36,0A.17.17,0,0,0,51.05,70.05Zm0-42.52q0,.18.18,0Zm.18.37a.17.17,0,0,0,.19-.19c0-.12-.06-.18-.19-.18Zm0,42.52c.13,0,.19,0,.19-.09s-.06-.09-.19-.09Zm.19,14.48a.16.16,0,0,1,.18.18c0,.13-.06.19-.18.19a.17.17,0,0,1-.19-.19A.17.17,0,0,1,51.42,84.9Zm.18.37a.18.18,0,1,0,.18.18A.16.16,0,0,0,51.6,85.27Zm.18-57.37a.18.18,0,1,0,0,.36c.13,0,.19-.06.19-.18S51.91,27.9,51.78,27.9Zm0,57.55a.16.16,0,0,0-.18.18c0,.13.06.19.18.19a.17.17,0,0,0,.19-.19C52,85.51,51.91,85.45,51.78,85.45Zm0-56.64h.37v-.36L52,28.26Zm.92,8.07c.24,0,.37-.06.37-.18s-.13-.19-.37-.19Zm.37,0c-.25,0-.37,0-.37.09s.12.09.37.09.18,0,.18-.09S53.19,36.88,53.07,36.88Zm-.37,1.83c.24,0,.37-.06.37-.18s-.13-.18-.37-.18Zm0,10.08q.18,0,.18-.09t-.18-.09Zm.55-11.73q-.18,0-.18.09c0,.07.06.1.18.1Zm0-12.83c.12.13.37.4.73.83s.67.64.92.64l.18-.18c-.12,0-.27-.16-.45-.46a9.3,9.3,0,0,1-.46-.83,34.22,34.22,0,0,1,2.2-2.66,14.59,14.59,0,0,0,2-2.84l-.18.19a1.13,1.13,0,0,0-.55.55l-.37.73c-.36.37-1,1.07-2,2.11A15.1,15.1,0,0,1,53.25,24.23Zm0,13.38a.18.18,0,1,0,0-.36Zm.18,0q-.18,0-.18.09c0,.07.06.1.18.1s.19,0,.19-.1S53.55,37.61,53.43,37.61Zm-.18,52.24a.16.16,0,0,0,.18-.18c0-.13-.06-.19-.18-.19Zm.37-52c-.13,0-.19.06-.19.18s.06.18.19.18a.18.18,0,0,0,0-.36Zm1.83,44.35c-.12,0-.27.37-.46,1.1s-.4,1.5-.64,2.29-.46,1.56-.64,2.29a11.34,11.34,0,0,0-.28,1.29v.18a10.48,10.48,0,0,0,1.1-2.75c.25-1,.49-1.83.74-2.57a4.78,4.78,0,0,0,.18-1.46Zm-.92-50.4-.18.18h.18c.61,0,.92-.12.92-.37v-.18Zm7.34,44.72c-.25.12-.71.36-1.38.73a6.65,6.65,0,0,0-1.37.92,1.08,1.08,0,0,0-.55.27c-.25.19-.37.34-.37.46a11.52,11.52,0,0,0-1.92.83,7.94,7.94,0,0,0-1.75,1.37h.19a6.36,6.36,0,0,0,1.56-.64,5.29,5.29,0,0,0,1.19-.83,9.2,9.2,0,0,1,1-.82,10.46,10.46,0,0,1,1.38-.82,19.66,19.66,0,0,1,1.65-1.11ZM55.08,25.88a.18.18,0,1,0,0-.36Zm.19-.18c-.13,0-.19.06-.19.18s.06.18.19.18a.18.18,0,0,0,0-.36Zm.36,25.11v3.85c0,1.83,0,3.76-.09,5.77s-.12,3.94-.18,5.77-.09,3.12-.09,3.85v4a.75.75,0,0,0,.36-.74c0-.61,0-1.8.1-3.57s.09-3,.09-3.58c0-.24,0-1.16.09-2.74S56,60.71,56,60V55.39A25.2,25.2,0,0,0,55.63,50.81Zm.74-22a4.81,4.81,0,0,1-.19,1.47v.18l.19-.18a3.86,3.86,0,0,0,.18-1.47,8,8,0,0,0-.18-1.46,1.76,1.76,0,0,0-.92-1.29v.19c.12.24.28.58.46,1s.33.76.46,1Zm-.92,20.35a1.7,1.7,0,0,0,.18-1,1.72,1.72,0,0,0-.18-1Zm4-32.63-.18.37a3.1,3.1,0,0,0-.46.73,2.3,2.3,0,0,0-.27.74A2.63,2.63,0,0,0,59.48,16.53Zm-.18,85.6V103c0,.13.06.19.18.19a7.79,7.79,0,0,0,.09.82c.06.43.22.65.46.65s.46-.34.64-1a6.09,6.09,0,0,0,.28-1.38.37.37,0,0,0-.09-.27.34.34,0,0,1-.09-.28.75.75,0,0,0-.37.74c0,.36-.12.54-.37.54a.32.32,0,0,1-.36-.36V91.32L59.48,90q0,2.56-.09,5t-.09,5Zm.37-86.33v.37h-.19ZM60,87.28c-.36,0-.55.43-.55,1.29h1.1V88.2a2.62,2.62,0,0,0-.09-.55A.44.44,0,0,0,60,87.28Zm.55-57.18a8.11,8.11,0,0,1-.91,3.66l.91-.91a1.54,1.54,0,0,0,.92.55v-.55A8.51,8.51,0,0,1,61,31.47,8.29,8.29,0,0,0,60.58,30.1Zm0-17a1.49,1.49,0,0,1,.55.92,1.2,1.2,0,0,1-.55.82,2.87,2.87,0,0,0-.73.83v-.19a7.24,7.24,0,0,1,.37-1.28,7.19,7.19,0,0,0,.36-.91ZM60.4,25.52v1.74a15.59,15.59,0,0,0,.18,2.1l.92-4V25a.52.52,0,0,1-.37-.19l-.36-.36h-.19l-.18.36Zm.18,40v0Zm8.8,13.93a4.34,4.34,0,0,0-.92,1.74,4,4,0,0,1-.55,1.38,21,21,0,0,1-3.39,3.94,21,21,0,0,0-3.39,3.94l-.36.37-.19.18v4.76a26.82,26.82,0,0,1,5.23-7.42,81.5,81.5,0,0,1,6.87-6.14v-.37a15,15,0,0,0-1.38-1.1,11,11,0,0,1-1.37-1.1.54.54,0,0,0-.37-.18Zm-7.15,15a2.38,2.38,0,0,0-1.1,1.19,3.88,3.88,0,0,0-.55,1.74v.19a2.09,2.09,0,0,0,1-1.47A5.55,5.55,0,0,1,62.23,94.43ZM61.5,14.52v.36c-.25,0-.37-.06-.37-.18S61.25,14.52,61.5,14.52Zm0,.73v-.18a3.21,3.21,0,0,1,.46.73,2.28,2.28,0,0,1,.27.73v.19C61.74,16.6,61.5,16.11,61.5,15.25Zm0,18.33q.18,0,.18-.09t-.18-.09Zm.73,42.52a.17.17,0,0,0-.18.19.16.16,0,0,0,.18.18.17.17,0,0,0,.19-.18A.17.17,0,0,0,62.23,76.1Zm.19-59.2v.18c-.13,0-.19-.06-.19-.18S62.29,16.78,62.42,16.9Zm.18,76.8a.3.3,0,0,0-.28.18c-.06.12,0,.18.1.18Zm0-76.43q-.18,0-.18.09t.18.09Zm.18,58.47a.18.18,0,0,0,0,.36Zm0-57.74q.18,0,.18-.09t-.18-.09Zm.37,75.15c0,.12-.06.18-.19.18l-.18.18a.16.16,0,0,1,.18-.18Zm3.11-68.92v.19a6.64,6.64,0,0,0,1.1-.74,4.24,4.24,0,0,0-1-1.28c-.43-.37-.83-.73-1.2-1.1a13.11,13.11,0,0,0-1-1.47,3.65,3.65,0,0,1-.83-1.46c-.12,0-.18-.06-.18-.19v.19a1.47,1.47,0,0,0,.18.55,1.48,1.48,0,0,1,.19.55,13.38,13.38,0,0,0,1.28,1.74c.73.91,1.22,1.5,1.46,1.74l.19.18a.52.52,0,0,0,.18.37Zm-.18,64.89a11.06,11.06,0,0,0-2.75,3.66l.19-.36a18.07,18.07,0,0,0,1.28-1.65A14.24,14.24,0,0,1,66.08,89.12Zm-2.2-60.31c0-.12.12.07.37.55l.18-.18a2.57,2.57,0,0,1,.37-1.92,3.14,3.14,0,0,0,.55-1.74,6.27,6.27,0,0,0-.92,1.37A4,4,0,0,0,63.88,28.81Zm.92,1.65c-.12,0-.18,0-.18.1s.06.09.18.09Zm0,.55h.36L65,30.83H64.8Zm0,26A20.85,20.85,0,0,0,65,53.65a17.34,17.34,0,0,0-.18-3.21Zm.36,21.26c.13,0,.19-.06.19-.18s-.06-.18-.19-.18Zm.19,1.47c.36,0,.36-.19,0-.55Zm.18,1.46q.18,0,.18-.27a.63.63,0,0,0-.18-.46Zm.18,1.1a2.56,2.56,0,0,0,.19,1.1v-.36a3.12,3.12,0,0,0-.09-.74,2.07,2.07,0,0,1-.1-.55Zm.55-50.4a.16.16,0,0,0-.18.18c0,.13.06.19.18.19a.17.17,0,0,0,.19-.19A.17.17,0,0,0,66.26,31.93Zm.37.55h1.1a2.61,2.61,0,0,0-1.1-.18h-.18Zm.55,34.46a5.55,5.55,0,0,0,2.38-1.47,9.68,9.68,0,0,0,1.29-.91c.61-.49,1-.86,1.28-1.1v-.19a1.16,1.16,0,0,1-.27-.64,3.23,3.23,0,0,1-.1-.64L67.91,49.71a2.16,2.16,0,0,0-.36-1.65,6.8,6.8,0,0,0-.92-1.28V47l-.18.73v2.39q0,4.22.09,8.24t.09,8.62ZM69,89.3A4.72,4.72,0,0,0,70.21,92a21.49,21.49,0,0,0,2.84,3,25.87,25.87,0,0,0,3.39,2.57,5.8,5.8,0,0,0,2.84,1.1c.24,0,.36-.25.36-.74V96.08a48.78,48.78,0,0,0-1.37-11.91q-1.38-5.51-3.39-11.37a1.67,1.67,0,0,0-.18-.73c-.13-.24-.25-.49-.37-.73a.9.9,0,0,0-.46.18.9.9,0,0,1-.46.18,25.45,25.45,0,0,1-2.65,1.38,27.89,27.89,0,0,0-2.66,1.37l-.92.92v.37a1,1,0,0,0,.37.73l7,5.68a4.42,4.42,0,0,0,.64.55.61.61,0,0,1,.28.55,12.75,12.75,0,0,1-1.56,1.28l-2.11,1.56a18.2,18.2,0,0,0-1.92,1.65A2.32,2.32,0,0,0,69,89.3Zm-.73-57a.18.18,0,1,0,.18.18A.16.16,0,0,0,68.28,32.3Zm0,58.65a.16.16,0,0,0-.18.18.18.18,0,1,0,.36,0A.16.16,0,0,0,68.28,91Zm3.3-64.52a3.19,3.19,0,0,0-2,1,2.77,2.77,0,0,0-1.1,1.92h.74A2.28,2.28,0,0,1,70,27.44a7.3,7.3,0,0,1,1.74-1Zm-3.12,6c.25,0,.37-.06.37-.18s-.12-.19-.37-.19Zm1.84,1.28a8.52,8.52,0,0,0-1.84,2.57v-.18a8.54,8.54,0,0,0,.92-1.2A8.33,8.33,0,0,1,70.3,33.76ZM68.46,91.32a1.1,1.1,0,0,0,.19.64.87.87,0,0,1,.18.46,18.63,18.63,0,0,0,4.77,4.3,64.34,64.34,0,0,0,5.68,3.21l.36.18h.55c-.36-.24-1.22-.7-2.56-1.37a28.07,28.07,0,0,1-2.57-1.38.16.16,0,0,0-.18-.18c-.25,0-.37-.06-.37-.18L74,96.45Zm.92-62c-.12,0-.18,0-.18.1s.06.09.18.09.18,0,.18-.09S69.5,29.36,69.38,29.36Zm.37,1.29c-.13,0-.22.15-.28.46s-.15.45-.27.45v.19a.86.86,0,0,0,.55-.92Zm1.46,53.88v0Zm.92-58.47a.17.17,0,0,0-.18.19.18.18,0,1,0,.36,0A.17.17,0,0,0,72.13,26.06Zm.37,78.27c0-.12-.1-.19-.28-.19s-.21.07-.09.19Zm0-72.77c-.13,0-.19,0-.19.1s.06.09.19.09.18,0,.18-.09S72.62,31.56,72.5,31.56Zm.18-5.31a.16.16,0,0,0,.18.18.54.54,0,0,1,.37.18h.18C73.41,26.37,73.17,26.25,72.68,26.25Zm.92,4.58c-.13,0-.37.18-.74.55l-.18.18a2.18,2.18,0,0,0,.55-.36Zm.18-4c0-.12,0-.19-.09-.19s-.09.07-.09.19ZM73.6,44.94a6.46,6.46,0,0,0,2.1.37h1.93c.24,0,.64,0,1.19-.09s.94-.09,1.19-.09c-.25,0-.92,0-2-.09s-1.77-.1-2-.1H73.6Zm.18,2.39a.18.18,0,1,0,0,.36ZM74,26.8q-.18,0-.18.09T74,27Zm0,3.66v0Zm0,17.6a23.32,23.32,0,0,0,.83,2.66A17.27,17.27,0,0,0,76,53.19v-.37A14.29,14.29,0,0,0,75.34,51c-.43-1.1-.77-2-1-2.56a.54.54,0,0,0-.18-.37.5.5,0,0,1-.19-.37v.37Zm.92-20.71c-.25,0-.37,0-.37.09s.12.09.37.09Zm-.37,77.16a6.18,6.18,0,0,0,1.47.19,43.21,43.21,0,0,0,7.15-.56,4.19,4.19,0,0,0-1.29-.18,23.74,23.74,0,0,0-3.66.28A25.18,25.18,0,0,1,74.51,104.51Zm.55-77q-.18,0-.18.09c0,.07.06.09.18.09s.19,0,.19-.09S75.18,27.53,75.06,27.53Zm.19,0c-.13,0-.19.06-.19.18a.17.17,0,0,0,.19.19c.12,0,.18-.06.18-.19A.16.16,0,0,0,75.25,27.53Zm.18.37q0,.18.09.18t.09-.18Zm.18,84.31a.16.16,0,0,0-.18.18c0,.13.06.19.18.19s.18-.06.18-.19A.16.16,0,0,0,75.61,112.21Zm.18-84.31a.18.18,0,0,0,0,.36c.13,0,.19-.06.19-.18S75.92,27.9,75.79,27.9Zm0,1.65q-.18,0-.18.09t.18.09c.13,0,.19,0,.19-.09S75.92,29.55,75.79,29.55Zm.74-.74a.56.56,0,0,1-.18.37l-.37.37h.37a6,6,0,0,0,.73-.09c.37-.06.55-.22.55-.46s-.22-.43-.64-.55a4.17,4.17,0,0,0-1-.19l.18.19ZM76,53.56a2.25,2.25,0,0,1,.37.55,1.94,1.94,0,0,0,.36.55v-.37a1.8,1.8,0,0,1-.36-.55,2.47,2.47,0,0,0-.37-.55v.37ZM76.71,55q.18-.18,0-.18Zm0,11.37c0-1.35.61-2,1.83-2a3.17,3.17,0,0,1,2.2.83,2.92,2.92,0,0,1,.92,2.29v.91l-.18.37-.92.92h-.37a3.53,3.53,0,0,1-2.47-.92A3.07,3.07,0,0,1,76.71,66.39Zm.18-11.18c.13,0,.19,0,.19-.09S77,55,76.89,55Zm.19.36c.12,0,.18,0,.18-.09s-.06-.09-.18-.09Zm0,55.17a3.92,3.92,0,0,0,1.1-1.28,3.35,3.35,0,0,0,.55-1.65v-.18Zm.18-54.8c.12,0,.19,0,.19-.09s-.07-.09-.19-.09Zm.19,0a.16.16,0,0,1,.18.18.19.19,0,1,1-.37,0C77.26,56,77.32,55.94,77.45,55.94Zm.18.37a.18.18,0,1,0,.18.18A.16.16,0,0,0,77.63,56.31Zm-.18,10.08c0-1,.42-1.47,1.28-1.47a.49.49,0,0,1,.55.55,5.88,5.88,0,0,1-.09.92c-.07.36-.22.55-.46.55h-1.1c-.12,0-.18-.06-.18-.19Zm.36-9.72c-.12,0-.18,0-.18.1s.06.09.18.09Zm.37.37c-.13,0-.19.06-.19.18a.17.17,0,0,0,.19.19c.12,0,.18-.06.18-.19A.16.16,0,0,0,78.18,57Zm.18.37a.16.16,0,0,0-.18.18q0,.18.18,0Zm1.1,50.77c-.25.12-.49.52-.73,1.19s-.43,1.19-.55,1.56a1.17,1.17,0,0,0,.27-.46c.06-.18.16-.28.28-.28a2.88,2.88,0,0,1,.36-1.1A3,3,0,0,0,79.46,108.18Zm-.92-50.41c-.12,0-.18,0-.18.1s.06.09.18.09Zm.19.37a2.06,2.06,0,0,0,.46,1.19,6.91,6.91,0,0,0,.82,1v-.18l-.37-.74a1.47,1.47,0,0,0-.45-.55,1.27,1.27,0,0,1-.46-.55Zm.91,49.49a.18.18,0,1,0,0,.36.18.18,0,1,0,0-.36Zm.19-.37a.16.16,0,0,1,.18.18c0,.13-.06.19-.18.19a.17.17,0,0,1-.19-.19A.17.17,0,0,1,79.83,107.26Zm.36,1.83c-.12,0-.18,0-.18.1s.06.09.18.09.19,0,.19-.09S80.31,109.09,80.19,109.09Zm0-48.38.19.18v-.18l-.19-.19Zm.19,47.83c-.13,0-.19.1-.19.28s.06.27.19.27.18-.09.18-.27S80.5,108.54,80.38,108.54Zm.18-47.65q-.18,0-.18.09t.18.09Zm0,39.41c.12-.12.12-.19,0-.19a.17.17,0,0,0-.18.19Zm0,8.06q-.18,0-.18.09c0,.07.06.09.18.09Zm0-63a8,8,0,0,0,1,.46,3.75,3.75,0,0,0,1,.09h.36a4.49,4.49,0,0,0-2-.55Zm.18,62.32a.18.18,0,1,0,0,.36.18.18,0,1,0,0-.36Zm-.18.73a.16.16,0,0,0,.18-.18.17.17,0,0,0-.18-.19Zm.18-8.06a1.8,1.8,0,0,0,.92.36H82a2.88,2.88,0,0,0-1.1-.36Zm.19,7c-.13,0-.19.06-.19.18a.17.17,0,0,0,.19.19c.12,0,.18-.06.18-.19A.16.16,0,0,0,80.93,107.26Zm.18-.37a.17.17,0,0,0-.18.19.18.18,0,1,0,.36,0A.17.17,0,0,0,81.11,106.89ZM82.58,101c0-.12,0-.18-.1-.18s-.09.06-.09.18Zm0,0q.18.18.18,0Zm1.46.73.19-.18a.52.52,0,0,1-.37-.18h-.37c-.12,0-.18-.06-.18-.19h-.37Zm-.55-55.9c0,.12.06.18.19.18a.16.16,0,0,0,.18-.18Zm0,58.47a8.92,8.92,0,0,1,2.94.64c.61.31,1.46.76,2.56,1.37a.17.17,0,0,0,.19.19h.18v-.19l-.55-.55c0-.12-.06-.18-.19-.18l-2.93-1.47h-.36A7.82,7.82,0,0,0,83.49,104.33Zm.19-4a.76.76,0,0,0,.18-.55v-.37Zm0,9.34a3.38,3.38,0,0,0,.64,1.38,7.87,7.87,0,0,0,1,1.37,14.85,14.85,0,0,0,1.74.92,4.6,4.6,0,0,0,1.92.37h.55a18.25,18.25,0,0,1-3.39-1.29,2.93,2.93,0,0,1-1.92-2.75,1.81,1.81,0,0,1,.27-1.19,10.91,10.91,0,0,0,.83-1H85c-.37,0-.67.31-.92.92A4.28,4.28,0,0,0,83.68,109.64ZM84,98.46a1.75,1.75,0,0,0,.37-1.28c0-.49-.12-.73-.37-.73Zm.37-32.62q-.18,0-.18.36c0,.25.06.37.18.37Zm0,3.3A9.28,9.28,0,0,0,85.23,73c.56,1.22,1.13,2.38,1.75,3.48.24.49.7,1.28,1.37,2.38a15,15,0,0,0,1.37,2,11.62,11.62,0,0,0,1.1,1.46c.62.74,1,1.29,1.29,1.65.12.13.27.28.46.46a.75.75,0,0,1,.27.46v-.37a37.85,37.85,0,0,1-5-7,51.74,51.74,0,0,1-3.48-7.88v-.55Zm0,32.81c.24,0,.37-.06.37-.19s-.13-.18-.37-.18Zm.37-11.37a.86.86,0,0,0,.73.92,10.33,10.33,0,0,1,.09-3,17.64,17.64,0,0,0,.28-3.2h-.37l-.37,2.2q-.18.91-.27,1.83A11.92,11.92,0,0,0,84.78,90.58Zm0,11.55A.16.16,0,0,0,85,102a.17.17,0,0,0-.18-.19ZM85,97.36a1.46,1.46,0,0,0,.37,1.1v-1.1Zm.37,4.59c-.25,0-.37.06-.37.18s.12.18.37.18Zm5.49,4.21a3.36,3.36,0,0,1,.92.92,3.19,3.19,0,0,0,.92.91v-.18c0-.61-.58-1.43-1.74-2.47a11.15,11.15,0,0,0-2.66-1.93,8.35,8.35,0,0,0-1.47-.73,5.55,5.55,0,0,0-1.1-.37h-.36Zm-4.21-8.25q-.18,0-.18.09c0,.07.06.1.18.1Zm2-53a.56.56,0,0,0-.18.37.16.16,0,0,1-.18.18l-.55,1.1a2,2,0,0,1-.37.55v.55a.32.32,0,0,0,.37-.36c0-.25.06-.37.18-.37a11.24,11.24,0,0,0,.46-1.1A3.9,3.9,0,0,0,88.62,44.94Zm-.36,62.69c-.13,0-.18.09-.18.27s0,.28.18.28.18-.09.18-.28S88.38,107.63,88.26,107.63Zm.18.36a.17.17,0,0,0-.18.19.18.18,0,0,0,.36,0A.17.17,0,0,0,88.44,108Zm.18.19q-.18,0-.18.09t.18.09Zm0,.36q.19,0,0-.18Zm.19.55a3.12,3.12,0,0,1-.09.74,2.62,2.62,0,0,0-.1.73c.25,0,.37-.06.37-.18v-.19a.8.8,0,0,0-.09-.36.84.84,0,0,1-.09-.37ZM91,41.28a7,7,0,0,0-2.2,3.3l.18-.19a10.7,10.7,0,0,0,1-1.28,12.76,12.76,0,0,1,.82-1.1v-.37c0-.12,0-.18.1-.18S91,41.4,91,41.28Zm-1.47,65.25a.18.18,0,1,0,.18.18A.16.16,0,0,0,89.54,106.53Zm.18.36a.17.17,0,0,0-.18.19.16.16,0,0,0,.18.18c.13,0,.19-.06.19-.18A.17.17,0,0,0,89.72,106.89Zm.19.55a2.26,2.26,0,0,0,.18.83,7.11,7.11,0,0,0,.37.82q.18,0,.18-.36a2.31,2.31,0,0,0-.18-.83,1.22,1.22,0,0,0-.55-.64Zm.55,2.2c-.13,0-.18,0-.18.1s0,.09.18.09Zm2.56-.91v1.1a1.44,1.44,0,0,1-.18.91,1.08,1.08,0,0,1-.27.55,1.1,1.1,0,0,0-.28.55l-.37.37a.54.54,0,0,0-.18.37v.18c.37,0,.7-.43,1-1.28a7.31,7.31,0,0,0,.46-1.65,1.54,1.54,0,0,1,.09-.46C93.36,109.19,93.27,109,93,108.73Zm-.36-.37q.18-.18,0-.18ZM93,84.9q-.18,0-.18.09t.18.09c.12,0,.19,0,.19-.09S93.14,84.9,93,84.9Zm-.18,23.64q.18,0,0-.18Zm.37-23.27,1.28,1.28c.24.25.64.67,1.19,1.28s.95,1,1.19,1.29.34.3.64.55a4.79,4.79,0,0,0,.83.54h.18c-.12,0-.18,0-.18-.18s-.34-.3-.64-.55a1.45,1.45,0,0,0-.64-.36A19.36,19.36,0,0,0,95.13,87l-1.92-1.93ZM95,90.4a1.74,1.74,0,0,0,1.28,1.28h.19Zm.73,2a.18.18,0,0,0,0,.36.18.18,0,1,0,0-.36Zm.19.18c-.13,0-.19.09-.19.27s.06.28.19.28Zm0,.55c.24,0,.36-.06.36-.19s-.12-.18-.36-.18Zm.55,0c-.13,0-.19,0-.19.09s.06.09.19.09Zm0-1.1a.16.16,0,0,0,.18-.18c0-.13-.06-.19-.18-.19Zm.18-.18a.18.18,0,1,0,.18.18A.16.16,0,0,0,96.69,91.87Zm.37.18c-.13,0-.19.06-.19.18a.17.17,0,0,0,.19.19.17.17,0,0,0,.18-.19A.16.16,0,0,0,97.06,92.05Zm.36-4.77q.56.56,1.47,1.56c.61.67,1,1,1.1,1h.55l-.92-.73a.72.72,0,0,1,.74-.55.52.52,0,0,1,.36.18l.37.37h.37l-.74-.74h.19a5.81,5.81,0,0,1,.73.09,4.77,4.77,0,0,0,.73.1h.18a1.55,1.55,0,0,0-1.09-.55,9,9,0,0,1-1.75-1.38,5.31,5.31,0,0,1-1.19-1.74h-.18a.39.39,0,0,0-.28.09.37.37,0,0,1-.27.09,2.09,2.09,0,0,1-.28.92l-.45.92Zm-.18,5q-.18,0-.18.09c0,.07.06.1.18.1s.18,0,.18-.1S97.36,92.23,97.24,92.23Zm.37.19c-.13,0-.19,0-.19.09s.06.09.19.09.18,0,.18-.09S97.73,92.42,97.61,92.42Zm1.46-1.84c0,.13,0,.19.09.19s.1-.06.1-.19Zm.55.37a2.65,2.65,0,0,0,1.84.92v-.19l-1.1-.55a1.68,1.68,0,0,0-.74-.18h0Zm.92-.74c.12,0,.18,0,.18-.18a.16.16,0,0,0-.18-.18Zm.37-6.78a.17.17,0,0,0-.19.19c0,.12.06.18.19.18a.16.16,0,0,0,.18-.18A.17.17,0,0,0,100.91,83.43Zm.18,1.65c-.13,0-.18.07-.18.19s0,.18.18.18.37-.06.37-.18S101.33,85.08,101.09,85.08Zm.37-1.46c-.25,0-.37.06-.37.18s.12.18.37.18Zm0,.73c-.25,0-.37,0-.37.09s.12.09.37.09Zm.18-1.83q-.18,0-.18.27c0,.19.06.28.18.28s.18-.09.18-.28S101.76,82.52,101.64,82.52Zm0,1.46q0-.18-.09-.18c-.07,0-.09.06-.09.18s0,.19.09.19S101.64,84.11,101.64,84Zm0,.37q-.18,0-.18.27c0,.19.06.28.18.28s.18-.09.18-.28S101.76,84.35,101.64,84.35Zm-.18,1.28a.18.18,0,1,0,0-.36Zm.18,3.49q-.18,0-.18.09t.18.09q.18,0,.18-.09T101.64,89.12Zm.18-3.67a.16.16,0,0,0-.18.18c0,.13.06.19.18.19a.17.17,0,0,0,.19-.19A.17.17,0,0,0,101.82,85.45Zm0,6.6q0-.18-.09-.18t-.09.18Zm2-.55a5.42,5.42,0,0,0,2.75.73,2.26,2.26,0,0,0,2.56-2.56,4.82,4.82,0,0,0-.55-1.75,22.19,22.19,0,0,0-1.28-2.38,10.14,10.14,0,0,0-1.74-2.11,2.85,2.85,0,0,0-1.74-.91v.55c-.25,0-.37,0-.37.09s-.12.09-.36.09h-.92c-.13,0-.18-.06-.18-.18l1.28,1.28v.55a4,4,0,0,0-.64-.46,1.71,1.71,0,0,0-.64-.27h-.19l.73.73h-.73a2.28,2.28,0,0,1,.73,1.65c0,.25-.06.37-.18.37a1.67,1.67,0,0,0,.92.45,4.91,4.91,0,0,0,.92.1,1.1,1.1,0,0,0,.64-.19,1.12,1.12,0,0,1,.64-.18c.24,0,.36.18.36.55a2.54,2.54,0,0,1-1,2.2,2,2,0,0,0-1,1.47ZM102,86q.36,0,.36-.18c0-.12-.12-.19-.36-.19Zm0,.92c.24,0,.36-.06.36-.19s-.12-.18-.36-.18Zm0,5.5c.24,0,.36-.07.36-.19s-.12-.18-.36-.18Zm.73-3.3c.12,0,.18-.1.18-.28s-.06-.27-.18-.27Zm.91-7a.16.16,0,0,0-.18.18c0,.13.06.19.18.19a.17.17,0,0,0,.19-.19C103.84,82.21,103.78,82.15,103.65,82.15Zm.37.92c.12,0,.19,0,.19.09s-.07.09-.19.09-.18,0-.18-.09S103.9,83.07,104,83.07Z" transform="translate(-12.75 -10.49)"/></g></g></g></g></svg>